<?xml version="1.0" standalone="no"?>
<!DOCTYPE svg PUBLIC "-//W3C//DTD SVG 20010904//EN"
 "http://www.w3.org/TR/2001/REC-SVG-20010904/DTD/svg10.dtd">
<svg version="1.0" xmlns="http://www.w3.org/2000/svg"
 width="400.000000pt" height="400.000000pt" viewBox="0 0 400.000000 400.000000"
 preserveAspectRatio="xMidYMid meet">

<g transform="translate(0.000000,400.000000) scale(0.100000,-0.100000)"
fill="#000000" stroke="none">
<path d="M28 3975 c-6 -14 -15 -25 -20 -25 -4 0 -8 -877 -8 -1950 0 -1072 4
-1950 8 -1950 5 0 14 -11 20 -25 l12 -25 1960 0 c1947 0 1960 0 1980 20 20 20
20 33 20 1975 0 1075 -4 1955 -8 1955 -5 0 -14 11 -20 25 l-12 25 -1960 0
-1960 0 -12 -25z m1460 -605 c2 -5 8 -10 14 -10 28 0 162 -125 174 -162 4 -12
13 -28 20 -36 8 -7 14 -26 14 -41 0 -15 5 -32 11 -38 7 -7 11 -43 10 -90 -2
-111 -10 -158 -32 -182 -10 -11 -19 -31 -19 -45 0 -13 -16 -44 -35 -68 -19
-24 -38 -51 -41 -60 -4 -10 -24 -23 -45 -30 -22 -6 -39 -14 -39 -18 0 -4 -19
-13 -42 -20 -24 -7 -54 -17 -67 -24 -29 -13 -201 -12 -210 2 -3 5 -30 12 -60
15 -55 6 -101 36 -101 64 0 7 -8 13 -17 13 -23 0 -63 39 -63 62 0 11 -7 18
-18 18 -18 0 -42 37 -42 65 0 8 -4 15 -10 15 -5 0 -10 18 -10 40 0 22 -4 40
-10 40 -6 0 -10 47 -10 120 0 73 4 120 10 120 6 0 10 9 10 20 0 12 11 32 25
46 14 14 25 29 25 33 0 5 7 14 15 21 8 7 15 22 15 34 0 16 9 24 33 31 25 8 31
15 30 32 -2 17 3 21 20 21 50 -3 77 3 77 16 0 19 38 28 150 35 75 5 108 2 155
-11 33 -10 61 -22 63 -28z m-503 -20 c-3 -5 -10 -10 -16 -10 -5 0 -9 5 -9 10
0 6 7 10 16 10 8 0 12 -4 9 -10z m1873 -187 c39 -14 72 -30 72 -34 0 -5 7 -9
15 -9 8 0 15 -4 15 -10 0 -5 7 -10 15 -10 8 0 15 5 15 10 0 6 8 10 18 10 16
-1 16 -2 -2 -15 -17 -13 -15 -35 5 -35 25 0 109 -136 109 -177 0 -7 5 -13 10
-13 6 0 10 -47 10 -120 0 -73 -4 -120 -10 -120 -5 0 -10 -11 -10 -24 0 -83
-109 -201 -251 -273 -41 -20 -61 -23 -150 -22 -133 1 -202 11 -223 32 -10 9
-21 17 -25 17 -14 0 -101 83 -101 97 0 16 -37 18 -42 2 -2 -6 -4 10 -6 36 -1
26 -8 53 -15 59 -32 25 -49 171 -35 291 6 53 26 105 40 105 4 0 8 8 8 17 0 22
39 63 59 63 9 0 22 13 29 29 7 17 26 36 43 43 16 7 29 18 29 25 0 6 18 14 40
18 22 4 40 10 40 14 0 16 65 26 144 23 54 -3 105 -12 154 -29z m49 31 c-3 -3
-12 -4 -19 -1 -8 3 -5 6 6 6 11 1 17 -2 13 -5z m-1150 -336 c-3 -8 -6 -5 -6 6
-1 11 2 17 5 13 3 -3 4 -12 1 -19z m490 0 c-3 -8 -6 -5 -6 6 -1 11 2 17 5 13
3 -3 4 -12 1 -19z m-889 -429 c2 -5 14 -9 26 -9 12 0 26 -4 31 -8 6 -5 29 -14
53 -21 24 -7 46 -19 49 -27 3 -8 11 -14 18 -14 6 0 25 -11 41 -25 16 -14 34
-25 39 -25 6 0 24 -12 40 -28 17 -15 47 -36 68 -46 20 -11 37 -23 37 -28 0 -4
14 -8 30 -8 19 0 30 -5 30 -14 0 -15 21 -26 51 -26 10 0 19 -4 19 -10 0 -5 7
-10 15 -10 8 0 15 7 15 15 0 8 4 15 10 15 5 0 7 -6 4 -14 -7 -18 9 -23 113
-37 116 -15 306 -7 408 19 44 11 104 23 133 27 28 4 52 11 52 16 0 5 71 9 160
9 93 0 160 -4 160 -9 0 -6 21 -13 48 -16 50 -8 112 -42 112 -62 0 -7 4 -13 8
-13 26 0 32 -119 32 -633 -1 -522 -8 -718 -29 -725 -6 -2 -11 -15 -11 -29 0
-37 -46 -87 -89 -96 -106 -22 -182 -26 -366 -20 -155 5 -212 10 -254 24 -60
21 -111 71 -124 123 -4 17 -10 220 -14 451 -3 231 -9 425 -13 430 -5 6 -11 31
-15 57 -4 26 -13 53 -21 59 -8 6 -14 16 -14 22 0 9 -45 56 -55 57 -3 0 -9 0
-15 0 -5 0 -10 7 -10 15 0 9 -11 21 -25 27 -14 6 -25 14 -25 18 0 18 -95 32
-183 27 -103 -5 -131 -13 -123 -33 3 -8 1 -14 -4 -14 -6 0 -10 8 -10 18 -1 14
-2 15 -9 2 -5 -8 -12 -258 -15 -555 -7 -537 -11 -600 -43 -626 -7 -6 -13 -18
-13 -25 0 -8 -7 -14 -15 -14 -8 0 -15 -4 -15 -9 0 -5 -26 -18 -57 -28 -51 -16
-90 -18 -313 -17 -173 0 -262 4 -277 12 -12 7 -30 12 -41 12 -18 0 -82 77 -82
99 0 6 -4 11 -10 11 -7 0 -10 273 -10 800 0 527 3 800 10 800 6 0 10 13 10 28
0 35 16 52 51 52 15 0 29 7 33 15 3 8 17 15 31 15 14 0 25 3 25 8 0 10 334 2
338 -9z m189 -35 c-3 -3 -12 -4 -19 -1 -8 3 -5 6 6 6 11 1 17 -2 13 -5z m258
-164 c-3 -5 -15 -10 -26 -10 -10 0 -19 5 -19 10 0 6 12 10 26 10 14 0 23 -4
19 -10z m442 -1212 c-2 -35 -3 -7 -3 62 0 69 1 97 3 63 2 -35 2 -91 0 -125z
m-490 -305 c-3 -10 -5 -2 -5 17 0 19 2 27 5 18 2 -10 2 -26 0 -35z m-849 -141
c2 -7 -3 -12 -12 -12 -9 0 -16 7 -16 16 0 17 22 14 28 -4z m3040 -504 c-6 -18
-28 -21 -28 -4 0 9 7 16 16 16 9 0 14 -5 12 -12z"/>
</g>
</svg>
